<?xml version="1.0" encoding="UTF-8" standalone="no"?>
<svg
   xmlns:dc="http://purl.org/dc/elements/1.1/"
   xmlns:cc="http://creativecommons.org/ns#"
   xmlns:rdf="http://www.w3.org/1999/02/22-rdf-syntax-ns#"
   xmlns:svg="http://www.w3.org/2000/svg"
   xmlns="http://www.w3.org/2000/svg"
   id="svg5276"
   version="1.1"
   viewBox="0 0 70.900399 16.679304"
   height="16.679304mm"
   width="70.900398mm">
  <defs
     id="defs5270" />
  <metadata
     id="metadata5273">
    <rdf:RDF>
      <cc:Work
         rdf:about="">
        <dc:format>image/svg+xml</dc:format>
        <dc:type
           rdf:resource="http://purl.org/dc/dcmitype/StillImage" />
        <dc:title></dc:title>
      </cc:Work>
    </rdf:RDF>
  </metadata>
  <g
     transform="translate(156.46131,-111.50291)"
     id="layer1">
    <g
       id="text836"
       style="font-style:normal;font-weight:normal;font-size:10.58333302px;line-height:125%;font-family:Sans;letter-spacing:0px;word-spacing:0px;fill:#5e5086;fill-opacity:1;stroke:none;stroke-width:0.26458332px;stroke-linecap:butt;stroke-linejoin:miter;stroke-opacity:1"
       aria-label="MuniHac.de">
      <path
         id="path825"
         style="font-style:normal;font-variant:normal;font-weight:300;font-stretch:normal;font-size:14.11111164px;font-family:Roboto;-inkscape-font-specification:'Roboto Light';fill:#5e5086;fill-opacity:1;stroke-width:0.26458332px"
         d="m -138.59629,111.99385 3.70004,8.8539 3.71381,-8.8539 h 1.12999 v 10.03212 h -0.84749 v -4.36838 l 0.0689,-4.47863 -3.73448,8.84701 h -0.65457 l -3.72071,-8.81255 0.0689,4.41661 v 4.39594 h -0.8475 v -10.03212 z" />
      <path
         id="path827"
         style="font-style:normal;font-variant:normal;font-weight:300;font-stretch:normal;font-size:14.11111164px;font-family:Roboto;-inkscape-font-specification:'Roboto Light';fill:#5e5086;fill-opacity:1;stroke-width:0.26458332px"
         d="m -122.90732,121.08201 q -0.74414,1.08176 -2.37712,1.08176 -1.192,0 -1.81212,-0.68901 -0.62011,-0.69591 -0.63389,-2.05328 v -4.8507 h 0.81993 v 4.74735 q 0,2.12906 1.72255,2.12906 1.79145,0 2.26687,-1.48139 v -5.39502 h 0.82682 v 7.45519 h -0.79926 z" />
      <path
         id="path829"
         style="font-style:normal;font-variant:normal;font-weight:300;font-stretch:normal;font-size:14.11111164px;font-family:Roboto;-inkscape-font-specification:'Roboto Light';fill:#5e5086;fill-opacity:1;stroke-width:0.26458332px"
         d="m -119.17284,114.57078 0.0276,1.27469 q 0.42031,-0.68902 1.04731,-1.04731 0.62701,-0.36518 1.38493,-0.36518 1.1989,0 1.78456,0.67524 0.58567,0.67524 0.59256,2.02571 v 4.89204 h -0.81993 v -4.89893 q -0.007,-0.99907 -0.4272,-1.48828 -0.41341,-0.4892 -1.3298,-0.4892 -0.76481,0 -1.35737,0.48231 -0.58567,0.47543 -0.86817,1.28847 v 5.10563 h -0.81993 v -7.45519 z" />
      <path
         id="path831"
         style="font-style:normal;font-variant:normal;font-weight:300;font-stretch:normal;font-size:14.11111164px;font-family:Roboto;-inkscape-font-specification:'Roboto Light';fill:#5e5086;fill-opacity:1;stroke-width:0.26458332px"
         d="m -111.29046,122.02597 h -0.82682 v -7.45519 h 0.82682 z m -0.97151,-9.61182 q 0,-0.23426 0.15158,-0.39274 0.15158,-0.16536 0.41341,-0.16536 0.26183,0 0.41341,0.16536 0.15848,0.15848 0.15848,0.39274 0,0.23427 -0.15848,0.39274 -0.15158,0.15848 -0.41341,0.15848 -0.26183,0 -0.41341,-0.15848 -0.15158,-0.15847 -0.15158,-0.39274 z" />
      <path
         id="path833"
         style="font-style:normal;font-variant:normal;font-weight:300;font-stretch:normal;font-size:14.11111164px;font-family:Roboto;-inkscape-font-specification:'Roboto Light';fill:#5e5086;fill-opacity:1;stroke-width:0.26458332px"
         d="m -101.41681,122.02597 h -0.85439 v -4.80935 h -5.73264 v 4.80935 h -0.84749 v -10.03212 h 0.84749 v 4.50619 h 5.73264 v -4.50619 h 0.85439 z" />
      <path
         id="path835"
         style="font-style:normal;font-variant:normal;font-weight:300;font-stretch:normal;font-size:14.11111164px;font-family:Roboto;-inkscape-font-specification:'Roboto Light';fill:#5e5086;fill-opacity:1;stroke-width:0.26458332px"
         d="m -94.361258,122.02597 q -0.124023,-0.3514 -0.158474,-1.04042 -0.434082,0.565 -1.109321,0.87506 -0.668348,0.30316 -1.419379,0.30316 -1.07487,0 -1.743219,-0.59944 -0.661458,-0.59945 -0.661458,-1.51584 0,-1.08865 0.902615,-1.72255 0.909505,-0.6339 2.5287,-0.6339 h 1.495172 v -0.84749 q 0,-0.79927 -0.496094,-1.25402 -0.489203,-0.46164 -1.43316,-0.46164 -0.861274,0 -1.426269,0.44097 -0.564996,0.44097 -0.564996,1.06109 l -0.826823,-0.007 q 0,-0.88883 0.826823,-1.53651 0.826823,-0.65457 2.032606,-0.65457 1.247125,0 1.963705,0.62701 0.72347,0.62011 0.744141,1.73633 v 3.52777 q 0,1.08176 0.227376,1.6192 v 0.0827 z m -2.590711,-0.59256 q 0.826822,0 1.4745,-0.39963 0.654569,-0.39963 0.950847,-1.06798 v -1.63986 h -1.474501 q -1.233344,0.0138 -1.929254,0.45475 -0.695909,0.43408 -0.695909,1.19889 0,0.62701 0.461643,1.04042 0.468533,0.41341 1.212674,0.41341 z" />
      <path
         id="path837"
         style="font-style:normal;font-variant:normal;font-weight:300;font-stretch:normal;font-size:14.11111164px;font-family:Roboto;-inkscape-font-specification:'Roboto Light';fill:#5e5086;fill-opacity:1;stroke-width:0.26458332px"
         d="m -88.759531,121.46786 q 0.861274,0 1.44005,-0.48231 0.585667,-0.4892 0.633898,-1.2609 h 0.792372 q -0.03445,0.68213 -0.427192,1.24712 -0.392741,0.55811 -1.047309,0.87506 -0.647678,0.31694 -1.391819,0.31694 -1.46761,0 -2.328884,-1.01974 -0.854384,-1.01975 -0.854384,-2.7423 v -0.24805 q 0,-1.10243 0.385851,-1.94992 0.38585,-0.84749 1.10243,-1.30914 0.72347,-0.46164 1.688097,-0.46164 1.226454,0 2.018826,0.73036 0.799262,0.73036 0.854384,1.92236 h -0.792372 q -0.05512,-0.87505 -0.633898,-1.41249 -0.571886,-0.53743 -1.44694,-0.53743 -1.116211,0 -1.736328,0.80615 -0.613227,0.80615 -0.613227,2.25998 v 0.24116 q 0,1.42627 0.613227,2.22553 0.620117,0.79926 1.743218,0.79926 z" />
    </g>
    <path
       id="path884"
       d="m -156.07245,111.8352 5.82264,16.01472 h 3.1773 l -5.82264,-16.01472 z"
       style="fill:#453a62;fill-opacity:0.39215686;fill-rule:evenodd;stroke:#453a62;stroke-width:0.26458332px;stroke-linecap:butt;stroke-linejoin:miter;stroke-opacity:1" />
    <path
       id="path884-3"
       d="m -150.25161,111.8352 5.82264,16.01472 h 3.17729 l -5.82264,-16.01472 z"
       style="fill:#5e5086;fill-opacity:0.39215686;fill-rule:evenodd;stroke:#5e5086;stroke-width:0.26458332;stroke-linecap:butt;stroke-linejoin:miter;stroke-miterlimit:5.30000019;stroke-dasharray:none;stroke-opacity:1" />
    <path
       id="rect4626"
       d="m -139.58758,124.76688 h 53.694371 v 3.01556 h -52.636031 z"
       style="fill:#8f4e8b;fill-opacity:0.39215686;stroke:#8f4e8b;stroke-width:0.26458332;stroke-linecap:round;stroke-miterlimit:5.30000019;stroke-dasharray:none;stroke-opacity:1" />
  </g>
</svg>
