<?xml version="1.0" encoding="UTF-8" standalone="no"?>
<svg
   xmlns:dc="http://purl.org/dc/elements/1.1/"
   xmlns:cc="http://creativecommons.org/ns#"
   xmlns:rdf="http://www.w3.org/1999/02/22-rdf-syntax-ns#"
   xmlns:svg="http://www.w3.org/2000/svg"
   xmlns="http://www.w3.org/2000/svg"
   id="svg5276"
   version="1.1"
   viewBox="0 0 81.238655 21.064884"
   height="21.064884mm"
   width="81.238655mm">
  <defs
     id="defs5270" />
  <metadata
     id="metadata5273">
    <rdf:RDF>
      <cc:Work
         rdf:about="">
        <dc:format>image/svg+xml</dc:format>
        <dc:type
           rdf:resource="http://purl.org/dc/dcmitype/StillImage" />
        <dc:title></dc:title>
      </cc:Work>
    </rdf:RDF>
  </metadata>
  <g
     transform="translate(158.26131,-109.70291)"
     id="layer1">
    <flowRoot
       transform="matrix(0.26458333,0,0,0.26458333,-172.28031,109.52787)"
       style="font-style:normal;font-weight:normal;font-size:18.66666603px;line-height:125%;font-family:Sans;text-align:end;letter-spacing:0px;word-spacing:0px;text-anchor:end;fill:#8f4e8b;fill-opacity:1;stroke:none;stroke-width:1px;stroke-linecap:butt;stroke-linejoin:miter;stroke-opacity:1"
       id="flowRoot826"
       xml:space="preserve"><flowRegion
         style="font-size:18.66666603px;text-align:end;text-anchor:end;fill:#8f4e8b;fill-opacity:1"
         id="flowRegion828"><rect
           style="font-size:18.66666603px;text-align:end;text-anchor:end;fill:#8f4e8b;fill-opacity:1"
           y="52.158161"
           x="123.46584"
           height="25.314188"
           width="230.02684"
           id="rect830" /></flowRegion><flowPara
         style="font-style:normal;font-variant:normal;font-weight:300;font-stretch:normal;font-size:18.66666603px;line-height:125%;font-family:Roboto;-inkscape-font-specification:'Roboto Light';text-align:end;letter-spacing:0px;word-spacing:0px;text-anchor:end;fill:#8f4e8b;fill-opacity:1"
         id="flowPara832">Sometime 2020 </flowPara></flowRoot>    <g
       id="text836"
       style="font-style:normal;font-weight:normal;font-size:10.58333302px;line-height:125%;font-family:Sans;letter-spacing:0px;word-spacing:0px;fill:#5e5086;fill-opacity:1;stroke:none;stroke-width:0.26458332px;stroke-linecap:butt;stroke-linejoin:miter;stroke-opacity:1"
       aria-label="MuniHac.de">
      <path
         id="path825"
         style="font-style:normal;font-variant:normal;font-weight:300;font-stretch:normal;font-size:14.11111164px;font-family:Roboto;-inkscape-font-specification:'Roboto Light';fill:#5e5086;fill-opacity:1;stroke-width:0.26458332px"
         d="m -138.59629,111.99385 3.70004,8.8539 3.71381,-8.8539 h 1.12999 v 10.03212 h -0.84749 v -4.38216 l 0.0689,-4.46485 -3.73448,8.84701 h -0.65457 l -3.72071,-8.81255 0.0689,4.43039 v 4.38216 h -0.8475 v -10.03212 z" />
      <path
         id="path827"
         style="font-style:normal;font-variant:normal;font-weight:300;font-stretch:normal;font-size:14.11111164px;font-family:Roboto;-inkscape-font-specification:'Roboto Light';fill:#5e5086;fill-opacity:1;stroke-width:0.26458332px"
         d="m -122.90732,121.08201 q -0.3514,0.50988 -0.93707,0.79927 -0.57877,0.28249 -1.44005,0.28249 -0.55121,0 -0.99907,-0.15158 -0.44787,-0.15847 -0.77171,-0.49609 -0.32383,-0.33762 -0.50298,-0.86817 -0.17225,-0.53743 -0.17225,-1.30224 v -4.77491 h 0.81993 v 4.78869 q 0,0.59944 0.1378,0.99907 0.13781,0.39964 0.37207,0.64079 0.23427,0.24116 0.54433,0.34451 0.31695,0.10335 0.66835,0.10335 0.49609,0 0.87505,-0.11024 0.37896,-0.11024 0.65457,-0.31006 0.27561,-0.19981 0.45475,-0.46853 0.17915,-0.26872 0.2825,-0.59256 v -5.39502 h 0.82682 v 7.45519 h -0.79926 z" />
      <path
         id="path829"
         style="font-style:normal;font-variant:normal;font-weight:300;font-stretch:normal;font-size:14.11111164px;font-family:Roboto;-inkscape-font-specification:'Roboto Light';fill:#5e5086;fill-opacity:1;stroke-width:0.26458332px"
         d="m -119.17284,114.57078 0.0276,1.27469 q 0.19293,-0.31695 0.44098,-0.57878 0.25493,-0.26182 0.56499,-0.44786 0.31006,-0.18603 0.66835,-0.2825 0.35829,-0.10335 0.75792,-0.10335 0.55811,0 0.99908,0.15158 0.44097,0.15159 0.74414,0.48232 0.31006,0.33073 0.46853,0.85438 0.16537,0.51677 0.16537,1.25402 v 4.85069 h -0.81993 v -4.85758 q 0,-0.57878 -0.12403,-0.96463 -0.12402,-0.38585 -0.3514,-0.62012 -0.22737,-0.23426 -0.5581,-0.33073 -0.32384,-0.10335 -0.72347,-0.10335 -0.44098,0 -0.79927,0.15158 -0.35829,0.1447 -0.63389,0.39274 -0.27561,0.24805 -0.47543,0.57189 -0.19981,0.31695 -0.31695,0.65457 v 5.10563 h -0.81993 v -7.45519 z" />
      <path
         id="path831"
         style="font-style:normal;font-variant:normal;font-weight:300;font-stretch:normal;font-size:14.11111164px;font-family:Roboto;-inkscape-font-specification:'Roboto Light';fill:#5e5086;fill-opacity:1;stroke-width:0.26458332px"
         d="m -111.29046,122.02597 h -0.82682 v -7.45519 h 0.82682 z m -0.97151,-9.61182 q 0,-0.23426 0.15158,-0.39274 0.15158,-0.16536 0.41341,-0.16536 0.26183,0 0.41341,0.16536 0.15848,0.15848 0.15848,0.39274 0,0.23427 -0.15848,0.39274 -0.15158,0.15848 -0.41341,0.15848 -0.26183,0 -0.41341,-0.15848 -0.15158,-0.15847 -0.15158,-0.39274 z" />
      <path
         id="path833"
         style="font-style:normal;font-variant:normal;font-weight:300;font-stretch:normal;font-size:14.11111164px;font-family:Roboto;-inkscape-font-specification:'Roboto Light';fill:#5e5086;fill-opacity:1;stroke-width:0.26458332px"
         d="m -101.41681,122.02597 h -0.85439 v -4.80935 h -5.73264 v 4.80935 h -0.84749 v -10.03212 h 0.84749 v 4.50619 h 5.73264 v -4.50619 h 0.85439 z" />
      <path
         id="path835"
         style="font-style:normal;font-variant:normal;font-weight:300;font-stretch:normal;font-size:14.11111164px;font-family:Roboto;-inkscape-font-specification:'Roboto Light';fill:#5e5086;fill-opacity:1;stroke-width:0.26458332px"
         d="m -94.361258,122.02597 q -0.0689,-0.19292 -0.110243,-0.46853 -0.03445,-0.2825 -0.04823,-0.57189 -0.186035,0.24116 -0.440972,0.45475 -0.254937,0.2136 -0.571886,0.37207 -0.316949,0.15848 -0.695909,0.25494 -0.378961,0.0965 -0.819933,0.0965 -0.544325,0 -0.992188,-0.15847 -0.440972,-0.15847 -0.757921,-0.44097 -0.310058,-0.28939 -0.482313,-0.67524 -0.172255,-0.38585 -0.172255,-0.8406 0,-0.54433 0.234267,-0.97841 0.234266,-0.44097 0.675238,-0.74414 0.440973,-0.31006 1.06798,-0.46854 0.633898,-0.16536 1.419379,-0.16536 h 1.529623 v -0.84749 q 0,-0.79927 -0.496094,-1.25402 -0.489203,-0.46164 -1.43316,-0.46164 -0.434082,0 -0.799262,0.11713 -0.36518,0.11714 -0.633897,0.32384 -0.261828,0.20671 -0.413412,0.48231 -0.144694,0.26872 -0.144694,0.57878 l -0.826823,-0.007 q 0,-0.4203 0.206706,-0.81304 0.206706,-0.39274 0.578776,-0.69591 0.37896,-0.31006 0.902615,-0.4961 0.530545,-0.18603 1.171332,-0.18603 0.592557,0 1.088651,0.15158 0.502984,0.15159 0.861274,0.45476 0.35829,0.30316 0.558105,0.75792 0.199816,0.45475 0.199816,1.06109 v 3.61046 q 0,0.19292 0.01378,0.39963 0.01378,0.2067 0.04134,0.39963 0.03445,0.19292 0.07579,0.37207 0.04134,0.17225 0.09646,0.30317 v 0.0827 z m -2.590711,-0.59256 q 0.447862,0 0.826822,-0.11024 0.385851,-0.11713 0.69591,-0.31695 0.310058,-0.19981 0.537435,-0.46164 0.227376,-0.26872 0.36518,-0.57878 v -1.63986 h -1.412489 q -0.633898,0 -1.136882,0.11713 -0.496094,0.11024 -0.840603,0.32384 -0.34451,0.2136 -0.530545,0.52365 -0.179145,0.30317 -0.179145,0.68902 0,0.30317 0.117133,0.57189 0.117134,0.26183 0.33073,0.46164 0.220486,0.19293 0.530544,0.31006 0.310059,0.11024 0.69591,0.11024 z" />
      <path
         id="path837"
         style="font-style:normal;font-variant:normal;font-weight:300;font-stretch:normal;font-size:14.11111164px;font-family:Roboto;-inkscape-font-specification:'Roboto Light';fill:#5e5086;fill-opacity:1;stroke-width:0.26458332px"
         d="m -88.759531,121.46786 q 0.392741,0 0.751031,-0.11024 0.36518,-0.11713 0.647678,-0.33762 0.282498,-0.22048 0.461643,-0.54432 0.186035,-0.32384 0.213596,-0.75103 h 0.792372 q -0.02756,0.53054 -0.268718,0.9784 -0.234266,0.44787 -0.627007,0.77171 -0.385851,0.32383 -0.895725,0.50987 -0.509874,0.17914 -1.07487,0.17914 -0.785481,0 -1.378038,-0.28249 -0.592556,-0.28939 -0.999078,-0.79238 -0.399631,-0.50298 -0.606336,-1.17822 -0.199816,-0.68213 -0.199816,-1.46761 v -0.28939 q 0,-0.78548 0.199816,-1.46072 0.206705,-0.68213 0.606336,-1.17822 0.399631,-0.50298 0.992188,-0.79237 0.599447,-0.28939 1.378038,-0.28939 0.599447,0 1.109321,0.18603 0.516764,0.18604 0.895725,0.53055 0.385851,0.34451 0.613227,0.8406 0.227376,0.48921 0.254937,1.09554 h -0.792372 q -0.02756,-0.45475 -0.199816,-0.81304 -0.165364,-0.35829 -0.447862,-0.61323 -0.275608,-0.25493 -0.647678,-0.38585 -0.36518,-0.1378 -0.785482,-0.1378 -0.640788,0 -1.08865,0.24805 -0.440972,0.24804 -0.72347,0.66834 -0.282498,0.42031 -0.413412,0.96463 -0.124023,0.54433 -0.124023,1.13688 v 0.28939 q 0,0.59945 0.124023,1.15066 0.130914,0.54433 0.406522,0.96463 0.282497,0.41341 0.73036,0.66146 0.454753,0.24804 1.09554,0.24804 z" />
      <path
         id="path839"
         style="font-style:normal;font-variant:normal;font-weight:300;font-stretch:normal;font-size:4.93888903px;font-family:Roboto;-inkscape-font-specification:'Roboto Light';fill:#453a62;fill-opacity:1;stroke-width:0.26458332px"
         d="m -84.964761,121.85234 q 0,-0.0844 0.05306,-0.14228 0.05547,-0.0603 0.151929,-0.0603 0.09646,0 0.151928,0.0603 0.05547,0.0579 0.05547,0.14228 0,0.0844 -0.05547,0.13987 -0.05547,0.053 -0.151928,0.053 -0.09646,0 -0.151929,-0.053 -0.05306,-0.0555 -0.05306,-0.13987 z" />
      <path
         id="path841"
         style="font-style:normal;font-variant:normal;font-weight:300;font-stretch:normal;font-size:4.93888903px;font-family:Roboto;-inkscape-font-specification:'Roboto Light';fill:#453a62;fill-opacity:1;stroke-width:0.26458332px"
         d="m -83.877143,120.6972 q 0,-0.30386 0.06994,-0.54743 0.06994,-0.24598 0.20016,-0.41961 0.130225,-0.17363 0.315916,-0.26769 0.188102,-0.094 0.422024,-0.094 0.27733,0 0.475079,0.11094 0.20016,0.11093 0.330384,0.30626 v -1.46382 h 0.286977 v 3.70417 h -0.270096 l -0.01206,-0.34727 q -0.130224,0.1857 -0.332796,0.2918 -0.20016,0.1037 -0.482313,0.1037 -0.231511,0 -0.417201,-0.0965 -0.185691,-0.0989 -0.315916,-0.27251 -0.130224,-0.17604 -0.20016,-0.41961 -0.06994,-0.24357 -0.06994,-0.53778 z m 0.2918,0.0506 q 0,0.2291 0.04582,0.42685 0.04582,0.19533 0.139871,0.34003 0.09405,0.14469 0.236334,0.22669 0.144694,0.082 0.342442,0.082 0.147106,0 0.265273,-0.0338 0.120578,-0.0362 0.212217,-0.0989 0.09405,-0.0627 0.161575,-0.14951 0.06994,-0.0868 0.118167,-0.18811 v -1.22507 q -0.04341,-0.0989 -0.106109,-0.19052 -0.0627,-0.0916 -0.15434,-0.16157 -0.09164,-0.0724 -0.212218,-0.11335 -0.120578,-0.0434 -0.279742,-0.0434 -0.20016,0 -0.344854,0.0844 -0.144694,0.082 -0.238745,0.22669 -0.09405,0.14469 -0.139871,0.34244 -0.04582,0.19775 -0.04582,0.42444 z" />
      <path
         id="path843"
         style="font-style:normal;font-variant:normal;font-weight:300;font-stretch:normal;font-size:4.93888903px;font-family:Roboto;-inkscape-font-specification:'Roboto Light';fill:#453a62;fill-opacity:1;stroke-width:0.26458332px"
         d="m -80.001754,122.0742 q -0.255626,0 -0.470255,-0.0941 -0.21463,-0.0965 -0.371382,-0.26527 -0.15434,-0.17122 -0.241156,-0.40514 -0.08682,-0.23393 -0.08682,-0.51367 v -0.1037 q 0,-0.30144 0.08923,-0.54501 0.09164,-0.24598 0.24598,-0.4172 0.15434,-0.17363 0.3545,-0.26769 0.202572,-0.094 0.426848,-0.094 0.248391,0 0.441316,0.0892 0.192926,0.0892 0.32315,0.24839 0.132637,0.15917 0.20016,0.37862 0.06752,0.21945 0.06752,0.4799 v 0.17605 h -1.861729 v 0.0555 q 0,0.21463 0.06511,0.40514 0.06511,0.18811 0.183279,0.32798 0.118167,0.13987 0.282153,0.22186 0.163987,0.0796 0.364147,0.0796 0.23151,0 0.407555,-0.0844 0.178456,-0.0844 0.32315,-0.2701 l 0.180867,0.13746 q -0.06511,0.094 -0.151928,0.17846 -0.08441,0.0844 -0.197749,0.1471 -0.113344,0.0627 -0.255626,0.0989 -0.142282,0.0362 -0.318327,0.0362 z m -0.05305,-2.4598 q -0.163987,0 -0.303858,0.0627 -0.139871,0.0627 -0.248391,0.17846 -0.106109,0.11576 -0.176045,0.27974 -0.06752,0.16158 -0.09164,0.35933 h 1.565107 v -0.0314 q -0.0048,-0.16399 -0.05306,-0.31592 -0.04823,-0.15434 -0.142282,-0.27251 -0.09164,-0.11816 -0.229099,-0.1881 -0.137459,-0.0724 -0.320738,-0.0724 z" />
    </g>
    <path
       id="path884"
       d="m -156.07245,111.8352 5.82264,16.01472 h 3.1773 l -5.82264,-16.01472 z"
       style="fill:#453a62;fill-opacity:0.39215686;fill-rule:evenodd;stroke:#453a62;stroke-width:0.26458332px;stroke-linecap:butt;stroke-linejoin:miter;stroke-opacity:1" />
    <path
       id="path884-3"
       d="m -150.25161,111.8352 5.82264,16.01472 h 3.17729 l -5.82264,-16.01472 z"
       style="fill:#5e5086;fill-opacity:0.39215686;fill-rule:evenodd;stroke:#5e5086;stroke-width:0.26458332;stroke-linecap:butt;stroke-linejoin:miter;stroke-miterlimit:5.30000019;stroke-dasharray:none;stroke-opacity:1" />
    <path
       id="rect4626"
       d="m -139.58758,124.76688 h 25.06679 v 3.01556 h -24.00845 z"
       style="fill:#8f4e8b;fill-opacity:0.39215686;stroke:#8f4e8b;stroke-width:0.26458332;stroke-linecap:round;stroke-miterlimit:5.30000019;stroke-dasharray:none;stroke-opacity:1" />
  </g>
</svg>
