<?xml version="1.0" encoding="UTF-8" standalone="no"?>
<svg
   xmlns:dc="http://purl.org/dc/elements/1.1/"
   xmlns:cc="http://creativecommons.org/ns#"
   xmlns:rdf="http://www.w3.org/1999/02/22-rdf-syntax-ns#"
   xmlns:svg="http://www.w3.org/2000/svg"
   xmlns="http://www.w3.org/2000/svg"
   id="svg5276"
   version="1.1"
   viewBox="0 0 81.238655 21.064884"
   height="21.064884mm"
   width="81.238655mm">
  <defs
     id="defs5270" />
  <metadata
     id="metadata5273">
    <rdf:RDF>
      <cc:Work
         rdf:about="">
        <dc:format>image/svg+xml</dc:format>
        <dc:type
           rdf:resource="http://purl.org/dc/dcmitype/StillImage" />
        <dc:title></dc:title>
      </cc:Work>
    </rdf:RDF>
  </metadata>
  <g
     transform="translate(158.26131,-109.70291)"
     id="layer1">
    <g
       id="flowRoot826"
       style="font-style:normal;font-weight:normal;font-size:18.66666603px;line-height:125%;font-family:Sans;text-align:end;letter-spacing:0px;word-spacing:0px;text-anchor:end;fill:#8f4e8b;fill-opacity:1;stroke:none;stroke-width:1px;stroke-linecap:butt;stroke-linejoin:miter;stroke-opacity:1"
       transform="matrix(0.26458333,0,0,0.26458333,-172.28031,109.52787)"
       aria-label="Sometime 2020 ">
      <path
         id="path831"
         style="font-style:normal;font-variant:normal;font-weight:300;font-stretch:normal;font-size:18.66666603px;line-height:125%;font-family:Roboto;-inkscape-font-specification:'Roboto Light';text-align:end;letter-spacing:0px;word-spacing:0px;text-anchor:end;fill:#8f4e8b;fill-opacity:1"
         d="m 232.5599,66.059565 q 0,-0.546875 -0.18229,-0.966145 -0.17318,-0.428386 -0.60156,-0.77474 -0.41928,-0.355469 -1.11198,-0.647135 -0.69271,-0.291667 -1.73177,-0.583334 -1.00261,-0.282552 -1.80469,-0.610677 -0.80208,-0.337239 -1.36719,-0.783854 -0.55599,-0.446614 -0.86588,-1.029948 -0.30079,-0.583333 -0.30079,-1.367187 0,-0.765625 0.32813,-1.394531 0.32812,-0.628907 0.92057,-1.075521 0.59245,-0.455729 1.41276,-0.701823 0.82032,-0.255208 1.79558,-0.255208 1.04817,0 1.88671,0.309895 0.84766,0.309896 1.44011,0.847657 0.59245,0.53776 0.91146,1.257812 0.31901,0.720052 0.31901,1.549479 h -1.13021 q 0,-0.647135 -0.22787,-1.19401 -0.22786,-0.55599 -0.66536,-0.957031 -0.4375,-0.401042 -1.07552,-0.628907 -0.63802,-0.227864 -1.45833,-0.227864 -0.82032,0 -1.44922,0.200521 -0.61979,0.191406 -1.03907,0.528645 -0.41015,0.328125 -0.6289,0.77474 -0.20964,0.446615 -0.20964,0.947917 0,0.473958 0.17318,0.875 0.18229,0.401041 0.60156,0.747395 0.41927,0.33724 1.10287,0.638021 0.68359,0.291667 1.68619,0.55599 1.04818,0.291666 1.86849,0.638021 0.82032,0.346354 1.38542,0.820312 0.5651,0.464844 0.85677,1.075521 0.29167,0.610677 0.29167,1.41276 0,0.811198 -0.34636,1.458333 -0.33724,0.638021 -0.94791,1.084636 -0.60157,0.446614 -1.44011,0.683594 -0.83854,0.236979 -1.82291,0.236979 -0.59245,0 -1.19401,-0.100261 -0.59245,-0.10026 -1.14844,-0.300781 -0.54688,-0.209635 -1.02995,-0.528646 -0.47396,-0.31901 -0.82943,-0.75651 -0.34635,-0.446615 -0.55599,-1.011719 -0.20052,-0.574219 -0.20052,-1.276041 h 1.1211 q 0,0.838541 0.34635,1.421875 0.34636,0.574218 0.89323,0.929687 0.54688,0.355469 1.23047,0.519531 0.68359,0.154948 1.36719,0.154948 0.77474,0 1.40364,-0.173177 0.63802,-0.182292 1.08464,-0.510417 0.45573,-0.328125 0.69271,-0.783854 0.24609,-0.464843 0.24609,-1.029948 z" />
      <path
         id="path833"
         style="font-style:normal;font-variant:normal;font-weight:300;font-stretch:normal;font-size:18.66666603px;line-height:125%;font-family:Roboto;-inkscape-font-specification:'Roboto Light';text-align:end;letter-spacing:0px;word-spacing:0px;text-anchor:end;fill:#8f4e8b;fill-opacity:1"
         d="m 235.23959,64.245763 q 0,-1.07552 0.30989,-1.986979 0.31901,-0.911458 0.89323,-1.567708 0.57422,-0.665365 1.38542,-1.039062 0.8112,-0.373698 1.80469,-0.373698 1.01172,0 1.82291,0.373698 0.82032,0.373697 1.39453,1.039062 0.57422,0.65625 0.88412,1.567708 0.30989,0.911459 0.30989,1.986979 v 0.300782 q 0,1.07552 -0.30989,1.986979 -0.3099,0.911458 -0.88412,1.576823 -0.57421,0.65625 -1.38541,1.029947 -0.8112,0.364584 -1.8138,0.364584 -1.00261,0 -1.81381,-0.364584 -0.81119,-0.373697 -1.39453,-1.029947 -0.57422,-0.665365 -0.89323,-1.576823 -0.30989,-0.911459 -0.30989,-1.986979 z m 1.09375,0.300782 q 0,0.811197 0.21875,1.549479 0.21875,0.729166 0.63802,1.285156 0.41927,0.546875 1.03906,0.875 0.61979,0.328125 1.42188,0.328125 0.80208,0 1.41276,-0.328125 0.61979,-0.328125 1.03906,-0.875 0.41927,-0.55599 0.63802,-1.285156 0.21875,-0.738282 0.21875,-1.549479 v -0.300782 q 0,-0.792968 -0.21875,-1.522135 -0.21875,-0.738281 -0.63802,-1.294271 -0.41927,-0.555989 -1.04818,-0.884114 -0.61979,-0.33724 -1.42187,-0.33724 -0.79297,0 -1.41276,0.33724 -0.61068,0.328125 -1.02995,0.884114 -0.41927,0.55599 -0.63802,1.294271 -0.21875,0.729167 -0.21875,1.522135 z" />
      <path
         id="path835"
         style="font-style:normal;font-variant:normal;font-weight:300;font-stretch:normal;font-size:18.66666603px;line-height:125%;font-family:Roboto;-inkscape-font-specification:'Roboto Light';text-align:end;letter-spacing:0px;word-spacing:0px;text-anchor:end;fill:#8f4e8b;fill-opacity:1"
         d="m 247.29818,59.460607 0.0365,1.604167 q 0.24609,-0.401042 0.5651,-0.729167 0.32813,-0.337239 0.72917,-0.565104 0.40104,-0.236979 0.875,-0.364583 0.47396,-0.127604 1.02083,-0.127604 1.08464,0 1.85938,0.455729 0.77474,0.455729 1.10286,1.458333 0.23698,-0.410156 0.56511,-0.75651 0.33724,-0.355469 0.75651,-0.610677 0.42838,-0.255209 0.9388,-0.401042 0.51042,-0.145833 1.10286,-0.145833 0.76563,0 1.36719,0.209635 0.60156,0.200521 1.01172,0.647135 0.41927,0.4375 0.63802,1.121094 0.21875,0.683594 0.21875,1.640625 v 6.425781 h -1.09375 V 62.88769 q 0,-0.783854 -0.17318,-1.29427 -0.17317,-0.519532 -0.49218,-0.820313 -0.31901,-0.309896 -0.76563,-0.428385 -0.4375,-0.11849 -0.96614,-0.11849 -0.69271,0.0091 -1.21224,0.255209 -0.51954,0.236979 -0.88412,0.610677 -0.35547,0.364583 -0.55599,0.820312 -0.20052,0.455729 -0.23698,0.884115 v 6.526041 h -1.09375 v -6.516927 q 0,-0.738281 -0.17317,-1.230468 -0.17318,-0.492188 -0.49219,-0.792969 -0.31901,-0.300781 -0.76563,-0.428386 -0.4375,-0.127604 -0.97526,-0.127604 -0.61979,0 -1.09375,0.200521 -0.47396,0.191406 -0.82942,0.519531 -0.34636,0.328125 -0.57422,0.747396 -0.22787,0.419271 -0.36459,0.865885 v 6.763021 H 246.25 v -9.861979 z" />
      <path
         id="path837"
         style="font-style:normal;font-variant:normal;font-weight:300;font-stretch:normal;font-size:18.66666603px;line-height:125%;font-family:Roboto;-inkscape-font-specification:'Roboto Light';text-align:end;letter-spacing:0px;word-spacing:0px;text-anchor:end;fill:#8f4e8b;fill-opacity:1"
         d="m 266.67579,69.504878 q -0.96615,0 -1.77735,-0.355469 -0.8112,-0.364583 -1.40364,-1.002604 -0.58334,-0.647136 -0.91146,-1.53125 -0.32813,-0.884115 -0.32813,-1.941406 v -0.391927 q 0,-1.139323 0.33724,-2.059896 0.34636,-0.929688 0.92969,-1.576823 0.58333,-0.65625 1.33984,-1.011719 0.76563,-0.355468 1.61328,-0.355468 0.93881,0 1.66797,0.337239 0.72917,0.33724 1.22136,0.938802 0.5013,0.601563 0.75651,1.43099 0.25521,0.829427 0.25521,1.813802 v 0.665364 h -7.03646 v 0.209636 q 0,0.811198 0.24609,1.53125 0.2461,0.710937 0.69271,1.239583 0.44661,0.528646 1.06641,0.838542 0.61979,0.300781 1.3763,0.300781 0.875,0 1.54036,-0.319011 0.67448,-0.31901 1.22136,-1.020833 l 0.68359,0.519531 q -0.24609,0.355469 -0.57422,0.67448 -0.31901,0.31901 -0.74739,0.555989 -0.42839,0.236979 -0.96615,0.373698 -0.53776,0.136719 -1.20312,0.136719 z m -0.20053,-9.296875 q -0.61979,0 -1.14843,0.236979 -0.52865,0.236979 -0.9388,0.674479 -0.40105,0.4375 -0.66537,1.057292 -0.25521,0.610677 -0.34635,1.358073 h 5.91536 v -0.11849 q -0.0182,-0.619791 -0.20052,-1.19401 -0.18229,-0.583333 -0.53776,-1.029948 -0.34635,-0.446615 -0.86589,-0.710937 -0.51953,-0.273438 -1.21224,-0.273438 z" />
      <path
         id="path839"
         style="font-style:normal;font-variant:normal;font-weight:300;font-stretch:normal;font-size:18.66666603px;line-height:125%;font-family:Roboto;-inkscape-font-specification:'Roboto Light';text-align:end;letter-spacing:0px;word-spacing:0px;text-anchor:end;fill:#8f4e8b;fill-opacity:1"
         d="m 274.21354,56.935868 v 2.524739 h 2.04167 v 0.893229 h -2.04167 v 6.571615 q 0,0.519531 0.10027,0.838541 0.10937,0.309896 0.28255,0.492188 0.18229,0.173177 0.41015,0.236979 0.23698,0.05469 0.49219,0.05469 0.24609,0 0.47396,-0.02734 0.22786,-0.03646 0.41016,-0.0638 l 0.0456,0.893229 q -0.20052,0.07292 -0.52865,0.109375 -0.31901,0.04557 -0.63802,0.04557 -0.46484,0 -0.86588,-0.127604 -0.39193,-0.11849 -0.67448,-0.419271 -0.28255,-0.300781 -0.44662,-0.792969 -0.15495,-0.501302 -0.15495,-1.239583 v -6.571615 h -1.8138 v -0.893229 h 1.8138 v -2.524739 z" />
      <path
         id="path841"
         style="font-style:normal;font-variant:normal;font-weight:300;font-stretch:normal;font-size:18.66666603px;line-height:125%;font-family:Roboto;-inkscape-font-specification:'Roboto Light';text-align:end;letter-spacing:0px;word-spacing:0px;text-anchor:end;fill:#8f4e8b;fill-opacity:1"
         d="m 279.75521,69.322586 h -1.09375 v -9.861979 h 1.09375 z m -1.28515,-12.714843 q 0,-0.309896 0.20052,-0.519531 0.20052,-0.21875 0.54687,-0.21875 0.34636,0 0.54688,0.21875 0.20963,0.209635 0.20963,0.519531 0,0.309896 -0.20963,0.519531 -0.20052,0.209635 -0.54688,0.209635 -0.34635,0 -0.54687,-0.209635 -0.20052,-0.209635 -0.20052,-0.519531 z" />
      <path
         id="path843"
         style="font-style:normal;font-variant:normal;font-weight:300;font-stretch:normal;font-size:18.66666603px;line-height:125%;font-family:Roboto;-inkscape-font-specification:'Roboto Light';text-align:end;letter-spacing:0px;word-spacing:0px;text-anchor:end;fill:#8f4e8b;fill-opacity:1"
         d="m 283.72005,59.460607 0.0365,1.604167 q 0.2461,-0.401042 0.56511,-0.729167 0.32812,-0.337239 0.72916,-0.565104 0.40104,-0.236979 0.875,-0.364583 0.47396,-0.127604 1.02084,-0.127604 1.08463,0 1.85937,0.455729 0.77474,0.455729 1.10287,1.458333 0.23697,-0.410156 0.5651,-0.75651 0.33724,-0.355469 0.75651,-0.610677 0.42839,-0.255209 0.9388,-0.401042 0.51042,-0.145833 1.10287,-0.145833 0.76562,0 1.36718,0.209635 0.60157,0.200521 1.01172,0.647135 0.41927,0.4375 0.63802,1.121094 0.21875,0.683594 0.21875,1.640625 v 6.425781 h -1.09375 V 62.88769 q 0,-0.783854 -0.17317,-1.29427 -0.17318,-0.519532 -0.49219,-0.820313 -0.31901,-0.309896 -0.76563,-0.428385 -0.4375,-0.11849 -0.96614,-0.11849 -0.69271,0.0091 -1.21224,0.255209 -0.51953,0.236979 -0.88412,0.610677 -0.35546,0.364583 -0.55599,0.820312 -0.20052,0.455729 -0.23697,0.884115 v 6.526041 h -1.09375 v -6.516927 q 0,-0.738281 -0.17318,-1.230468 -0.17318,-0.492188 -0.49219,-0.792969 -0.31901,-0.300781 -0.76562,-0.428386 -0.4375,-0.127604 -0.97526,-0.127604 -0.6198,0 -1.09375,0.200521 -0.47396,0.191406 -0.82943,0.519531 -0.34636,0.328125 -0.57422,0.747396 -0.22786,0.419271 -0.36458,0.865885 v 6.763021 h -1.09375 v -9.861979 z" />
      <path
         id="path845"
         style="font-style:normal;font-variant:normal;font-weight:300;font-stretch:normal;font-size:18.66666603px;line-height:125%;font-family:Roboto;-inkscape-font-specification:'Roboto Light';text-align:end;letter-spacing:0px;word-spacing:0px;text-anchor:end;fill:#8f4e8b;fill-opacity:1"
         d="m 303.09766,69.504878 q -0.96615,0 -1.77734,-0.355469 -0.8112,-0.364583 -1.40365,-1.002604 -0.58333,-0.647136 -0.91146,-1.53125 -0.32812,-0.884115 -0.32812,-1.941406 v -0.391927 q 0,-1.139323 0.33724,-2.059896 0.34635,-0.929688 0.92968,-1.576823 0.58334,-0.65625 1.33985,-1.011719 0.76562,-0.355468 1.61328,-0.355468 0.9388,0 1.66797,0.337239 0.72917,0.33724 1.22135,0.938802 0.5013,0.601563 0.75651,1.43099 0.25521,0.829427 0.25521,1.813802 v 0.665364 h -7.03646 v 0.209636 q 0,0.811198 0.2461,1.53125 0.24609,0.710937 0.69271,1.239583 0.44661,0.528646 1.0664,0.838542 0.61979,0.300781 1.3763,0.300781 0.875,0 1.54037,-0.319011 0.67448,-0.31901 1.22135,-1.020833 l 0.6836,0.519531 q -0.2461,0.355469 -0.57422,0.67448 -0.31901,0.31901 -0.7474,0.555989 -0.42838,0.236979 -0.96614,0.373698 -0.53776,0.136719 -1.20313,0.136719 z m -0.20052,-9.296875 q -0.61979,0 -1.14844,0.236979 -0.52864,0.236979 -0.9388,0.674479 -0.40104,0.4375 -0.66536,1.057292 -0.25521,0.610677 -0.34636,1.358073 h 5.91537 v -0.11849 q -0.0182,-0.619791 -0.20052,-1.19401 -0.1823,-0.583333 -0.53777,-1.029948 -0.34635,-0.446615 -0.86588,-0.710937 -0.51953,-0.273438 -1.21224,-0.273438 z" />
      <path
         id="path847"
         style="font-style:normal;font-variant:normal;font-weight:300;font-stretch:normal;font-size:18.66666603px;line-height:125%;font-family:Roboto;-inkscape-font-specification:'Roboto Light';text-align:end;letter-spacing:0px;word-spacing:0px;text-anchor:end;fill:#8f4e8b;fill-opacity:1"
         d="m 321.63672,69.322586 h -8.3125 v -0.838542 l 4.34765,-4.930989 q 0.61068,-0.692708 1.02995,-1.248698 0.42838,-0.555989 0.68359,-1.029948 0.26433,-0.483073 0.3737,-0.902343 0.11849,-0.428386 0.11849,-0.847657 0,-0.601562 -0.18229,-1.09375 -0.17318,-0.501302 -0.52865,-0.865885 -0.34635,-0.364583 -0.86588,-0.565104 -0.51953,-0.200521 -1.19401,-0.200521 -0.69271,0 -1.2487,0.236979 -0.54688,0.227865 -0.9388,0.638021 -0.38281,0.410156 -0.59245,0.97526 -0.20964,0.565105 -0.20964,1.230469 h -1.08463 q 0,-0.820312 0.27344,-1.549479 0.28255,-0.729167 0.81119,-1.276042 0.52865,-0.546875 1.27605,-0.865885 0.75651,-0.31901 1.71354,-0.31901 0.89323,0 1.61328,0.246093 0.72005,0.236979 1.22135,0.701823 0.5013,0.455729 0.76563,1.121094 0.27344,0.65625 0.27344,1.494792 0,0.601562 -0.21875,1.212239 -0.21875,0.610677 -0.58334,1.21224 -0.36458,0.601562 -0.83854,1.19401 -0.47396,0.592448 -0.97526,1.166667 l -3.70052,4.183593 h 6.97266 z" />
      <path
         id="path849"
         style="font-style:normal;font-variant:normal;font-weight:300;font-stretch:normal;font-size:18.66666603px;line-height:125%;font-family:Roboto;-inkscape-font-specification:'Roboto Light';text-align:end;letter-spacing:0px;word-spacing:0px;text-anchor:end;fill:#8f4e8b;fill-opacity:1"
         d="m 331.68099,63.790034 q 0,1.458333 -0.27344,2.533854 -0.27343,1.075521 -0.79297,1.786459 -0.51953,0.701822 -1.27604,1.048177 -0.75651,0.346354 -1.72265,0.346354 -0.95703,0 -1.71354,-0.346354 -0.75651,-0.346355 -1.28516,-1.048177 -0.52865,-0.710938 -0.8112,-1.786459 -0.28255,-1.075521 -0.28255,-2.533854 v -2.242187 q 0,-1.458334 0.27344,-2.52474 0.28255,-1.075521 0.80208,-1.768229 0.52865,-0.701823 1.28516,-1.039062 0.75651,-0.346354 1.71354,-0.346354 0.95703,0 1.71354,0.346354 0.76562,0.337239 1.28516,1.039062 0.52864,0.692708 0.80208,1.768229 0.28255,1.066406 0.28255,2.52474 z m -1.09375,-2.378906 q 0,-2.278646 -0.74739,-3.445312 -0.73829,-1.166667 -2.24219,-1.166667 -1.49479,0 -2.24219,1.166667 -0.7474,1.166666 -0.7474,3.445312 v 2.497396 q 0,1.121093 0.19141,1.996093 0.19141,0.865886 0.56511,1.467448 0.38281,0.592448 0.94791,0.902344 0.56511,0.309896 1.30339,0.309896 0.74739,0 1.30338,-0.309896 0.56511,-0.309896 0.92969,-0.902344 0.3737,-0.601562 0.55599,-1.467448 0.18229,-0.875 0.18229,-1.996093 z" />
      <path
         id="path851"
         style="font-style:normal;font-variant:normal;font-weight:300;font-stretch:normal;font-size:18.66666603px;line-height:125%;font-family:Roboto;-inkscape-font-specification:'Roboto Light';text-align:end;letter-spacing:0px;word-spacing:0px;text-anchor:end;fill:#8f4e8b;fill-opacity:1"
         d="m 342.34505,69.322586 h -8.3125 v -0.838542 l 4.34766,-4.930989 q 0.61067,-0.692708 1.02995,-1.248698 0.42838,-0.555989 0.68359,-1.029948 0.26432,-0.483073 0.3737,-0.902343 0.11849,-0.428386 0.11849,-0.847657 0,-0.601562 -0.1823,-1.09375 -0.17317,-0.501302 -0.52864,-0.865885 -0.34636,-0.364583 -0.86589,-0.565104 -0.51953,-0.200521 -1.19401,-0.200521 -0.6927,0 -1.24869,0.236979 -0.54688,0.227865 -0.93881,0.638021 -0.38281,0.410156 -0.59244,0.97526 -0.20964,0.565105 -0.20964,1.230469 h -1.08464 q 0,-0.820312 0.27344,-1.549479 0.28255,-0.729167 0.8112,-1.276042 0.52865,-0.546875 1.27604,-0.865885 0.75651,-0.31901 1.71354,-0.31901 0.89323,0 1.61328,0.246093 0.72006,0.236979 1.22136,0.701823 0.5013,0.455729 0.76562,1.121094 0.27344,0.65625 0.27344,1.494792 0,0.601562 -0.21875,1.212239 -0.21875,0.610677 -0.58333,1.21224 -0.36459,0.601562 -0.83854,1.19401 -0.47396,0.592448 -0.97526,1.166667 l -3.70052,4.183593 h 6.97265 z" />
      <path
         id="path853"
         style="font-style:normal;font-variant:normal;font-weight:300;font-stretch:normal;font-size:18.66666603px;line-height:125%;font-family:Roboto;-inkscape-font-specification:'Roboto Light';text-align:end;letter-spacing:0px;word-spacing:0px;text-anchor:end;fill:#8f4e8b;fill-opacity:1"
         d="m 352.38932,63.790034 q 0,1.458333 -0.27344,2.533854 -0.27344,1.075521 -0.79297,1.786459 -0.51953,0.701822 -1.27604,1.048177 -0.75651,0.346354 -1.72265,0.346354 -0.95704,0 -1.71355,-0.346354 -0.75651,-0.346355 -1.28515,-1.048177 -0.52865,-0.710938 -0.8112,-1.786459 -0.28255,-1.075521 -0.28255,-2.533854 v -2.242187 q 0,-1.458334 0.27344,-2.52474 0.28255,-1.075521 0.80208,-1.768229 0.52864,-0.701823 1.28515,-1.039062 0.75651,-0.346354 1.71355,-0.346354 0.95703,0 1.71354,0.346354 0.76562,0.337239 1.28515,1.039062 0.52865,0.692708 0.80209,1.768229 0.28255,1.066406 0.28255,2.52474 z m -1.09375,-2.378906 q 0,-2.278646 -0.7474,-3.445312 -0.73828,-1.166667 -2.24218,-1.166667 -1.4948,0 -2.24219,1.166667 -0.7474,1.166666 -0.7474,3.445312 v 2.497396 q 0,1.121093 0.19141,1.996093 0.19141,0.865886 0.5651,1.467448 0.38282,0.592448 0.94792,0.902344 0.5651,0.309896 1.30339,0.309896 0.74739,0 1.30338,-0.309896 0.5651,-0.309896 0.92969,-0.902344 0.3737,-0.601562 0.55599,-1.467448 0.18229,-0.875 0.18229,-1.996093 z" />
    </g>
    <text
       id="text836"
       y="122.02597"
       x="-140.98718"
       style="font-style:normal;font-weight:normal;font-size:10.58333302px;line-height:125%;font-family:Sans;letter-spacing:0px;word-spacing:0px;fill:#5e5086;fill-opacity:1;stroke:none;stroke-width:0.26458332px;stroke-linecap:butt;stroke-linejoin:miter;stroke-opacity:1"
       xml:space="preserve"><tspan
         style="font-style:normal;font-variant:normal;font-weight:300;font-stretch:normal;font-size:14.11111164px;font-family:Roboto;-inkscape-font-specification:'Roboto Light';fill:#5e5086;fill-opacity:1;stroke-width:0.26458332px"
         y="122.02597"
         x="-140.98718"
         id="tspan834">MuniHac<tspan
   id="tspan840"
   style="font-style:normal;font-variant:normal;font-weight:300;font-stretch:normal;font-size:4.93888903px;font-family:Roboto;-inkscape-font-specification:'Roboto Light';fill:#453a62;fill-opacity:1;stroke-width:0.26458332px">.de</tspan></tspan></text>
    <path
       id="path884"
       d="m -156.07245,111.8352 5.82264,16.01472 h 3.1773 l -5.82264,-16.01472 z"
       style="fill:#453a62;fill-opacity:0.39215686;fill-rule:evenodd;stroke:#453a62;stroke-width:0.26458332px;stroke-linecap:butt;stroke-linejoin:miter;stroke-opacity:1" />
    <path
       id="path884-3"
       d="m -150.25161,111.8352 5.82264,16.01472 h 3.17729 l -5.82264,-16.01472 z"
       style="fill:#5e5086;fill-opacity:0.39215686;fill-rule:evenodd;stroke:#5e5086;stroke-width:0.26458332;stroke-linecap:butt;stroke-linejoin:miter;stroke-miterlimit:5.30000019;stroke-dasharray:none;stroke-opacity:1" />
    <path
       id="rect4626"
       d="m -139.58758,124.76688 h 25.06679 v 3.01556 h -24.00845 z"
       style="fill:#8f4e8b;fill-opacity:0.39215686;stroke:#8f4e8b;stroke-width:0.26458332;stroke-linecap:round;stroke-miterlimit:5.30000019;stroke-dasharray:none;stroke-opacity:1" />
  </g>
</svg>
